<?xml version="1.0" encoding="iso-8859-1"?>
<!-- Generator: Adobe Illustrator 18.0.0, SVG Export Plug-In . SVG Version: 6.00 Build 0)  -->
<!DOCTYPE svg PUBLIC "-//W3C//DTD SVG 1.1//EN" "http://www.w3.org/Graphics/SVG/1.1/DTD/svg11.dtd">
<svg version="1.1" id="Capa_1" xmlns="http://www.w3.org/2000/svg" xmlns:xlink="http://www.w3.org/1999/xlink" x="0px" y="0px"
	 viewBox="0 0 432.201 432.201" style="enable-background:new 0 0 432.201 432.201;" xml:space="preserve">
<g>
	<path d="M247.81,192.89H128.605c-4.142,0-7.5,3.358-7.5,7.5v136.856c0,4.142,3.358,7.5,7.5,7.5H247.81c4.143,0,7.5-3.358,7.5-7.5
		V200.39C255.31,196.248,251.952,192.89,247.81,192.89z M240.31,213.789l-27.428,13.221l-6.183-19.12h33.611V213.789z
		 M180.532,207.89l-11.55,14.07l-9.487-14.07H180.532z M141.403,207.89l20.77,30.803c1.324,1.964,3.499,3.187,5.866,3.299
		c2.359,0.108,4.646-0.902,6.149-2.733l19.291-23.5l7.776,24.049c0.667,2.062,2.193,3.735,4.185,4.587
		c0.943,0.404,1.948,0.605,2.951,0.605c1.115,0,2.229-0.249,3.256-0.744l28.662-13.815v86.227l-17.177-20.434
		c-1.608-1.913-4.072-2.899-6.548-2.631c-2.484,0.269-4.672,1.757-5.833,3.97l-12.688,24.165l-14.185-24.443
		c-1.032-1.779-2.75-3.056-4.751-3.532c-1.999-0.476-4.109-0.109-5.833,1.014l-13.258,8.647l-2.232-14.505
		c-0.342-2.223-1.664-4.176-3.601-5.319c-1.937-1.143-4.285-1.357-6.397-0.581l-11.701,4.297V207.89H141.403z M231.708,329.745
		h-20.907l8.039-15.309L231.708,329.745z M136.105,303.295l8.268-3.036l2.606,16.94c0.387,2.519,2.027,4.668,4.354,5.708
		s5.022,0.826,7.156-0.566l16.382-10.684l10.497,18.088h-49.263V303.295z"/>
	<path d="M424.701,111.07h-11.763V84.473c0-27.91-22.707-50.617-50.617-50.617s-50.617,22.707-50.617,50.617v26.597h-8.676
		L193.193,13.535c-2.841-2.523-7.119-2.522-9.96,0L2.52,174.003c-2.329,2.068-3.137,5.36-2.031,8.272
		c1.106,2.911,3.896,4.836,7.011,4.836h31.021v225.946c0,4.142,3.358,7.5,7.5,7.5h284.371c4.143,0,7.5-3.358,7.5-7.5V236.645h86.809
		c4.143,0,7.5-3.358,7.5-7.5V118.57C432.201,114.428,428.843,111.07,424.701,111.07z M326.703,84.473
		c0-19.639,15.978-35.617,35.617-35.617s35.617,15.978,35.617,35.617v26.597h-71.234V84.473z M322.892,405.558H53.521V179.613
		c0-3.228-2.069-6.095-5.131-7.116c-0.765-0.255-1.565-0.385-2.372-0.385H27.242L188.213,29.173l104.229,92.559v107.413
		c0,4.142,3.357,7.5,7.5,7.5h22.949V405.558z M417.201,221.645H307.443V126.07h109.758V221.645z"/>
	<path d="M354.822,183.592v18.221c0,4.142,3.357,7.5,7.5,7.5s7.5-3.358,7.5-7.5v-18.221c9.063-3.121,15.596-11.729,15.596-21.839
		c0-12.735-10.36-23.095-23.096-23.095s-23.096,10.361-23.096,23.095C339.226,171.863,345.758,180.47,354.822,183.592z
		 M362.322,153.658c4.464,0,8.096,3.632,8.096,8.095s-3.632,8.095-8.096,8.095s-8.096-3.632-8.096-8.095
		S357.858,153.658,362.322,153.658z"/>
</g>
<g>
</g>
<g>
</g>
<g>
</g>
<g>
</g>
<g>
</g>
<g>
</g>
<g>
</g>
<g>
</g>
<g>
</g>
<g>
</g>
<g>
</g>
<g>
</g>
<g>
</g>
<g>
</g>
<g>
</g>
</svg>
